<?xml version="1.0" encoding="utf-8"?>
<!-- Generator: Adobe Illustrator 24.1.2, SVG Export Plug-In . SVG Version: 6.00 Build 0)  -->
<svg version="1.0" id="Layer_1" xmlns="http://www.w3.org/2000/svg" xmlns:xlink="http://www.w3.org/1999/xlink" x="0px" y="0px"
	 viewBox="0 0 40 40" style="enable-background:new 0 0 40 40;" xml:space="preserve">
<path d="M21.1,3.4l4.3,8.8c0.4,0.7,1,1.2,1.8,1.3l9.7,1.4c1,0.1,1.4,1.4,0.7,2.1l-7,6.8c-0.6,0.6-0.8,1.4-0.7,2.1l1.7,9.7
	c0.2,1-0.9,1.7-1.8,1.3l-8.7-4.6c-0.7-0.4-1.5-0.4-2.3,0l-8.7,4.6c-0.9,0.5-1.9-0.3-1.8-1.3l1.7-9.7c0.1-0.8-0.1-1.6-0.7-2.1l-7-6.8
	C1.6,16.3,2,15.1,3,14.9l9.7-1.4c0.8-0.1,1.5-0.6,1.8-1.3l4.3-8.8C19.4,2.5,20.6,2.5,21.1,3.4z"/>
</svg>
